<svg width="283" height="60" viewBox="0 0 283 60" fill="none" xmlns="http://www.w3.org/2000/svg">
<path d="M8.78125 25.5469H2.10156V20.3438H8.78125V11.7422H15.7188V20.3438H22.3984V25.5469H15.7188V48H8.78125V25.5469ZM28.5625 9.14062H35.5V22.4531C36.9531 21.6562 38.5703 21.0234 40.3516 20.5547C42.1484 20.0859 44.0312 19.8516 46 19.8516C48.2812 19.8516 50.3281 20.1875 52.1406 20.8594C53.9688 21.5312 55.5156 22.5 56.7812 23.7656C58.0469 25.0156 59.0156 26.5391 59.6875 28.3359C60.375 30.1328 60.7188 32.1562 60.7188 34.4062V48H53.8047V34.6875C53.8047 33.375 53.5938 32.1797 53.1719 31.1016C52.75 30.0078 52.1328 29.0703 51.3203 28.2891C50.5078 27.5078 49.5156 26.9062 48.3438 26.4844C47.1875 26.0469 45.875 25.8281 44.4062 25.8281C42.6406 25.8281 41 26.1094 39.4844 26.6719C37.9688 27.2344 36.6406 27.9453 35.5 28.8047V48H28.5625V9.14062ZM66.8359 34.1719C66.8359 32.1875 67.2344 30.3281 68.0312 28.5938C68.8438 26.8594 69.9922 25.3438 71.4766 24.0469C72.9766 22.75 74.7812 21.7266 76.8906 20.9766C79.0156 20.2266 81.3984 19.8516 84.0391 19.8516C86.6797 19.8516 89.0547 20.2266 91.1641 20.9766C93.2891 21.7266 95.0938 22.75 96.5781 24.0469C98.0781 25.3438 99.2266 26.8594 100.023 28.5938C100.836 30.3281 101.242 32.1875 101.242 34.1719C101.242 36.1562 100.836 38.0156 100.023 39.75C99.2266 41.4844 98.0781 43 96.5781 44.2969C95.0938 45.5938 93.2891 46.6172 91.1641 47.3672C89.0547 48.1172 86.6797 48.4922 84.0391 48.4922C81.3984 48.4922 79.0156 48.1172 76.8906 47.3672C74.7812 46.6172 72.9766 45.5938 71.4766 44.2969C69.9922 43 68.8438 41.4844 68.0312 39.75C67.2344 38.0156 66.8359 36.1562 66.8359 34.1719ZM74.125 34.1719C74.125 35.2812 74.3438 36.3359 74.7812 37.3359C75.2344 38.3203 75.8828 39.1953 76.7266 39.9609C77.5859 40.7109 78.625 41.3125 79.8438 41.7656C81.0781 42.2031 82.4766 42.4219 84.0391 42.4219C85.6016 42.4219 86.9922 42.2031 88.2109 41.7656C89.4453 41.3125 90.4844 40.7109 91.3281 39.9609C92.1875 39.1953 92.8359 38.3203 93.2734 37.3359C93.7266 36.3359 93.9531 35.2812 93.9531 34.1719C93.9531 33.0625 93.7266 32.0078 93.2734 31.0078C92.8359 30.0078 92.1875 29.1328 91.3281 28.3828C90.4844 27.6172 89.4453 27.0156 88.2109 26.5781C86.9922 26.125 85.6016 25.8984 84.0391 25.8984C82.4766 25.8984 81.0781 26.125 79.8438 26.5781C78.625 27.0156 77.5859 27.6172 76.7266 28.3828C75.8828 29.1328 75.2344 30.0078 74.7812 31.0078C74.3438 32.0078 74.125 33.0625 74.125 34.1719ZM108.25 20.3438H115.188V24.3281C116.719 23.1875 118.336 22.2031 120.039 21.375C121.742 20.5469 123.438 19.9141 125.125 19.4766L127.164 25.8281C124.492 26.0938 122.141 26.6953 120.109 27.6328C118.094 28.5547 116.453 29.8594 115.188 31.5469V48H108.25V20.3438ZM136 16.5703C135.312 16.5703 134.688 16.4766 134.125 16.2891C133.578 16.0859 133.109 15.8203 132.719 15.4922C132.328 15.1484 132.023 14.7578 131.805 14.3203C131.602 13.8672 131.5 13.3906 131.5 12.8906C131.5 12.375 131.602 11.8984 131.805 11.4609C132.023 11.0078 132.328 10.6172 132.719 10.2891C133.109 9.96094 133.578 9.70312 134.125 9.51562C134.688 9.3125 135.312 9.21094 136 9.21094C136.703 9.21094 137.328 9.3125 137.875 9.51562C138.438 9.70312 138.914 9.96094 139.305 10.2891C139.695 10.6172 139.992 11.0078 140.195 11.4609C140.414 11.8984 140.523 12.375 140.523 12.8906C140.523 13.3906 140.414 13.8672 140.195 14.3203C139.992 14.7578 139.695 15.1484 139.305 15.4922C138.914 15.8203 138.438 16.0859 137.875 16.2891C137.328 16.4766 136.703 16.5703 136 16.5703ZM132.531 20.3438H139.469V48H132.531V20.3438ZM148.375 20.3203H155.289V33.8203C155.289 35.1016 155.43 36.2734 155.711 37.3359C155.992 38.3828 156.469 39.2812 157.141 40.0312C157.828 40.7812 158.734 41.3672 159.859 41.7891C161 42.1953 162.414 42.3984 164.102 42.3984C164.898 42.3984 165.703 42.3125 166.516 42.1406C167.344 41.9688 168.133 41.7344 168.883 41.4375C169.633 41.125 170.328 40.7578 170.969 40.3359C171.625 39.9141 172.188 39.4531 172.656 38.9531V20.3203H179.594V48H172.656V45.6328C170.953 46.6484 169.242 47.375 167.523 47.8125C165.805 48.25 164.172 48.4688 162.625 48.4688C160.094 48.4688 157.922 48.1641 156.109 47.5547C154.312 46.9453 152.836 46.0625 151.68 44.9062C150.539 43.7344 149.703 42.3047 149.172 40.6172C148.641 38.9141 148.375 36.9766 148.375 34.8047V20.3203ZM188.594 20.3438H195.531V22.6875C197.266 21.625 198.953 20.8906 200.594 20.4844C202.25 20.0625 203.867 19.8516 205.445 19.8516C207.648 19.8516 209.672 20.2031 211.516 20.9062C213.359 21.6094 214.938 22.6719 216.25 24.0938C217.266 23.3125 218.266 22.6562 219.25 22.125C220.234 21.5781 221.219 21.1406 222.203 20.8125C223.188 20.4688 224.188 20.2266 225.203 20.0859C226.219 19.9297 227.266 19.8516 228.344 19.8516C230.609 19.8516 232.664 20.1641 234.508 20.7891C236.352 21.3984 237.922 22.3125 239.219 23.5312C240.531 24.75 241.539 26.2734 242.242 28.1016C242.961 29.9141 243.32 32.0156 243.32 34.4062V48H236.406V35.5312C236.406 34.0156 236.188 32.6641 235.75 31.4766C235.328 30.2734 234.727 29.2656 233.945 28.4531C233.18 27.625 232.258 27 231.18 26.5781C230.117 26.1406 228.945 25.9219 227.664 25.9219C226.961 25.9219 226.242 25.9922 225.508 26.1328C224.773 26.2578 224.055 26.4609 223.352 26.7422C222.664 27.0234 222.016 27.3828 221.406 27.8203C220.797 28.2422 220.266 28.7422 219.812 29.3203V48H212.898V35.5312C212.898 34.0156 212.68 32.6641 212.242 31.4766C211.82 30.2734 211.219 29.2656 210.438 28.4531C209.672 27.625 208.742 27 207.648 26.5781C206.57 26.1406 205.383 25.9219 204.086 25.9219C203.289 25.9219 202.484 26.0078 201.672 26.1797C200.875 26.3359 200.102 26.5625 199.352 26.8594C198.617 27.1562 197.922 27.5156 197.266 27.9375C196.625 28.3594 196.047 28.8359 195.531 29.3672V48H188.594V20.3438Z" fill="white"/>
<path d="M264.2 35.2941H255.8L253 38.1176V45.1765L255.8 48H278.2L281 45.1765V38.1176L278.2 35.2941H269.8M264.2 35.2941V16.9412L261.4 14.1176V12H272.6V14.1176L269.8 16.9412V35.2941M264.2 35.2941H269.8" stroke="white" stroke-width="4"/>
</svg>
